<mxfile host="www.draw.io" modified="2024-03-29T10:40:41.600Z" agent="Mozilla/5.0 (Windows NT 10.0; Win64; x64) AppleWebKit/537.36 (KHTML, like Gecko) Chrome/123.0.0.0 Safari/537.36" etag="FC3GXc8Pesk9gnbVeEYc" version="24.2.1" type="device">
  <diagram name="Page-1" id="_MAag7d2XG5vmYoV7uUj">
    <mxGraphModel dx="1541" dy="753" grid="1" gridSize="10" guides="1" tooltips="1" connect="1" arrows="1" fold="1" page="1" pageScale="1" pageWidth="827" pageHeight="1169" math="0" shadow="0">
      <root>
        <mxCell id="0" />
        <mxCell id="1" parent="0" />
        <mxCell id="CGu1ErAJ2O1OjEhpgE73-4" style="edgeStyle=orthogonalEdgeStyle;rounded=0;orthogonalLoop=1;jettySize=auto;html=1;exitX=0.5;exitY=1;exitDx=0;exitDy=0;entryX=0.5;entryY=0;entryDx=0;entryDy=0;" edge="1" parent="1" source="CGu1ErAJ2O1OjEhpgE73-1" target="CGu1ErAJ2O1OjEhpgE73-3">
          <mxGeometry relative="1" as="geometry" />
        </mxCell>
        <mxCell id="CGu1ErAJ2O1OjEhpgE73-10" style="edgeStyle=orthogonalEdgeStyle;rounded=0;orthogonalLoop=1;jettySize=auto;html=1;exitX=0.5;exitY=1;exitDx=0;exitDy=0;entryX=0.5;entryY=0;entryDx=0;entryDy=0;" edge="1" parent="1" source="CGu1ErAJ2O1OjEhpgE73-1" target="CGu1ErAJ2O1OjEhpgE73-8">
          <mxGeometry relative="1" as="geometry" />
        </mxCell>
        <mxCell id="CGu1ErAJ2O1OjEhpgE73-14" style="edgeStyle=orthogonalEdgeStyle;rounded=0;orthogonalLoop=1;jettySize=auto;html=1;exitX=0.5;exitY=1;exitDx=0;exitDy=0;entryX=0.5;entryY=0;entryDx=0;entryDy=0;" edge="1" parent="1" source="CGu1ErAJ2O1OjEhpgE73-1" target="CGu1ErAJ2O1OjEhpgE73-12">
          <mxGeometry relative="1" as="geometry" />
        </mxCell>
        <mxCell id="CGu1ErAJ2O1OjEhpgE73-16" style="edgeStyle=orthogonalEdgeStyle;rounded=0;orthogonalLoop=1;jettySize=auto;html=1;exitX=0.5;exitY=1;exitDx=0;exitDy=0;entryX=0.5;entryY=0;entryDx=0;entryDy=0;" edge="1" parent="1" source="CGu1ErAJ2O1OjEhpgE73-1" target="CGu1ErAJ2O1OjEhpgE73-15">
          <mxGeometry relative="1" as="geometry" />
        </mxCell>
        <mxCell id="CGu1ErAJ2O1OjEhpgE73-1" value="Input" style="rounded=0;whiteSpace=wrap;html=1;fontSize=16;fontStyle=1;fillColor=#f5f5f5;fontColor=#333333;strokeColor=#666666;" vertex="1" parent="1">
          <mxGeometry x="-570" y="110" width="70" height="30" as="geometry" />
        </mxCell>
        <mxCell id="CGu1ErAJ2O1OjEhpgE73-6" value="" style="edgeStyle=orthogonalEdgeStyle;rounded=0;orthogonalLoop=1;jettySize=auto;html=1;" edge="1" parent="1" source="CGu1ErAJ2O1OjEhpgE73-3" target="CGu1ErAJ2O1OjEhpgE73-5">
          <mxGeometry relative="1" as="geometry" />
        </mxCell>
        <mxCell id="CGu1ErAJ2O1OjEhpgE73-3" value="1 * 1 Conv, 32" style="rounded=0;whiteSpace=wrap;html=1;fontSize=16;fontStyle=1;fillColor=#f8cecc;strokeColor=#b85450;" vertex="1" parent="1">
          <mxGeometry x="-585" y="190" width="100" height="40" as="geometry" />
        </mxCell>
        <mxCell id="CGu1ErAJ2O1OjEhpgE73-27" style="edgeStyle=orthogonalEdgeStyle;rounded=0;orthogonalLoop=1;jettySize=auto;html=1;exitX=0.5;exitY=1;exitDx=0;exitDy=0;entryX=0.5;entryY=0;entryDx=0;entryDy=0;" edge="1" parent="1" source="CGu1ErAJ2O1OjEhpgE73-5" target="CGu1ErAJ2O1OjEhpgE73-17">
          <mxGeometry relative="1" as="geometry">
            <mxPoint x="-535" y="380" as="targetPoint" />
          </mxGeometry>
        </mxCell>
        <mxCell id="CGu1ErAJ2O1OjEhpgE73-5" value="1 * 1 Conv, 36" style="rounded=0;whiteSpace=wrap;html=1;fontSize=16;fontStyle=1;fillColor=#f8cecc;strokeColor=#b85450;" vertex="1" parent="1">
          <mxGeometry x="-585" y="270" width="100" height="40" as="geometry" />
        </mxCell>
        <mxCell id="CGu1ErAJ2O1OjEhpgE73-7" value="" style="edgeStyle=orthogonalEdgeStyle;rounded=0;orthogonalLoop=1;jettySize=auto;html=1;" edge="1" parent="1" source="CGu1ErAJ2O1OjEhpgE73-8" target="CGu1ErAJ2O1OjEhpgE73-9">
          <mxGeometry relative="1" as="geometry" />
        </mxCell>
        <mxCell id="CGu1ErAJ2O1OjEhpgE73-8" value="1 * 1 Conv, 32" style="rounded=0;whiteSpace=wrap;html=1;fontSize=16;fontStyle=1;fillColor=#f8cecc;strokeColor=#b85450;" vertex="1" parent="1">
          <mxGeometry x="-440" y="190" width="100" height="40" as="geometry" />
        </mxCell>
        <mxCell id="CGu1ErAJ2O1OjEhpgE73-29" style="edgeStyle=orthogonalEdgeStyle;rounded=0;orthogonalLoop=1;jettySize=auto;html=1;exitX=0.5;exitY=1;exitDx=0;exitDy=0;entryX=0.5;entryY=0;entryDx=0;entryDy=0;" edge="1" parent="1" source="CGu1ErAJ2O1OjEhpgE73-9" target="CGu1ErAJ2O1OjEhpgE73-17">
          <mxGeometry relative="1" as="geometry">
            <mxPoint x="-480" y="380" as="targetPoint" />
            <Array as="points">
              <mxPoint x="-390" y="350" />
              <mxPoint x="-535" y="350" />
            </Array>
          </mxGeometry>
        </mxCell>
        <mxCell id="CGu1ErAJ2O1OjEhpgE73-9" value="1 * 1 Conv, 36" style="rounded=0;whiteSpace=wrap;html=1;fontSize=16;fontStyle=1;fillColor=#f8cecc;strokeColor=#b85450;" vertex="1" parent="1">
          <mxGeometry x="-440" y="270" width="100" height="40" as="geometry" />
        </mxCell>
        <mxCell id="CGu1ErAJ2O1OjEhpgE73-11" value="" style="edgeStyle=orthogonalEdgeStyle;rounded=0;orthogonalLoop=1;jettySize=auto;html=1;" edge="1" parent="1" source="CGu1ErAJ2O1OjEhpgE73-12" target="CGu1ErAJ2O1OjEhpgE73-13">
          <mxGeometry relative="1" as="geometry" />
        </mxCell>
        <mxCell id="CGu1ErAJ2O1OjEhpgE73-12" value="1 * 1 Conv, 32" style="rounded=0;whiteSpace=wrap;html=1;fontSize=16;fontStyle=1;fillColor=#f8cecc;strokeColor=#b85450;" vertex="1" parent="1">
          <mxGeometry x="-280" y="190" width="100" height="40" as="geometry" />
        </mxCell>
        <mxCell id="CGu1ErAJ2O1OjEhpgE73-23" value="" style="edgeStyle=orthogonalEdgeStyle;rounded=0;orthogonalLoop=1;jettySize=auto;html=1;" edge="1" parent="1" source="CGu1ErAJ2O1OjEhpgE73-13" target="CGu1ErAJ2O1OjEhpgE73-22">
          <mxGeometry relative="1" as="geometry" />
        </mxCell>
        <mxCell id="CGu1ErAJ2O1OjEhpgE73-13" value="1 * 1 Conv, 36" style="rounded=0;whiteSpace=wrap;html=1;fontSize=16;fontStyle=1;fillColor=#f8cecc;strokeColor=#b85450;" vertex="1" parent="1">
          <mxGeometry x="-280" y="270" width="100" height="40" as="geometry" />
        </mxCell>
        <mxCell id="CGu1ErAJ2O1OjEhpgE73-28" style="edgeStyle=orthogonalEdgeStyle;rounded=0;orthogonalLoop=1;jettySize=auto;html=1;exitX=0.5;exitY=1;exitDx=0;exitDy=0;entryX=0.5;entryY=0;entryDx=0;entryDy=0;" edge="1" parent="1" source="CGu1ErAJ2O1OjEhpgE73-15" target="CGu1ErAJ2O1OjEhpgE73-17">
          <mxGeometry relative="1" as="geometry" />
        </mxCell>
        <mxCell id="CGu1ErAJ2O1OjEhpgE73-15" value="3 *&amp;nbsp; 3&lt;div&gt;MaxPooling&lt;/div&gt;&lt;div&gt;Stride 2&lt;/div&gt;" style="rounded=0;whiteSpace=wrap;html=1;fontSize=16;fontStyle=1;fillColor=#d5e8d4;strokeColor=#82b366;" vertex="1" parent="1">
          <mxGeometry x="-720" y="190" width="110" height="60" as="geometry" />
        </mxCell>
        <mxCell id="CGu1ErAJ2O1OjEhpgE73-17" value="Concatenate" style="rounded=0;whiteSpace=wrap;html=1;fontSize=16;fontStyle=1;fillColor=#f5f5f5;fontColor=#333333;strokeColor=#666666;" vertex="1" parent="1">
          <mxGeometry x="-600" y="400" width="130" height="30" as="geometry" />
        </mxCell>
        <mxCell id="CGu1ErAJ2O1OjEhpgE73-30" style="edgeStyle=orthogonalEdgeStyle;rounded=0;orthogonalLoop=1;jettySize=auto;html=1;exitX=0;exitY=0.5;exitDx=0;exitDy=0;entryX=0.5;entryY=0;entryDx=0;entryDy=0;" edge="1" parent="1" source="CGu1ErAJ2O1OjEhpgE73-22" target="CGu1ErAJ2O1OjEhpgE73-17">
          <mxGeometry relative="1" as="geometry">
            <Array as="points">
              <mxPoint x="-280" y="350" />
              <mxPoint x="-535" y="350" />
            </Array>
          </mxGeometry>
        </mxCell>
        <mxCell id="CGu1ErAJ2O1OjEhpgE73-22" value="1 * 1 Conv, 40" style="rounded=0;whiteSpace=wrap;html=1;fontSize=16;fontStyle=1;fillColor=#f8cecc;strokeColor=#b85450;" vertex="1" parent="1">
          <mxGeometry x="-280" y="340" width="100" height="40" as="geometry" />
        </mxCell>
      </root>
    </mxGraphModel>
  </diagram>
</mxfile>
